<?xml version="1.0" standalone="no"?><!DOCTYPE svg PUBLIC "-//W3C//DTD SVG 1.1//EN" "http://www.w3.org/Graphics/SVG/1.1/DTD/svg11.dtd"><svg t="1526042664949" class="icon" style="" viewBox="0 0 1024 1024" version="1.1" xmlns="http://www.w3.org/2000/svg" p-id="2945" xmlns:xlink="http://www.w3.org/1999/xlink" width="200" height="200"><defs><style type="text/css"></style></defs><path d="M634.692878 602.703815c61.452607-111.732757 83.797521-217.870076 83.797521-217.870076l-11.174504 0 0 0-94.967932 0-100.555184 0 0-78.214363 245.802242 0 0-33.515325L511.793804 273.104051 511.793804 155.789159 400.066163 155.789159l0 117.314893L176.609859 273.104051l0 33.515325 223.455281 0 0 78.214363L210.126206 384.833739l0 33.517371 385.464095 0c0 5.587252 0 5.587252-5.588275 11.17041 0 39.104623-27.929096 94.972025-50.276057 139.66083-284.906865-111.728664-368.704386-44.688805-391.049301-33.517371-189.93484 134.072555-11.17041 301.665551 16.762779 296.078299 201.11139 44.691875 329.594647-39.104623 418.97942-145.247058 5.583159 5.587252 11.171434 5.587252 16.759709 5.587252 61.450561 33.517371 357.527836 173.177178 357.527836 173.177178L958.706413 697.670723C914.012492 697.670723 752.007771 641.808438 634.692878 602.703815L634.692878 602.703815zM489.44582 652.978848c-139.659807 178.76443-307.247686 122.902144-335.181899 111.726617-67.033719-16.758686-89.38068-139.659807-5.587252-178.763406 139.659807-44.688805 262.561951 5.587252 351.944678 50.279127C495.033072 647.391596 489.44582 652.978848 489.44582 652.978848L489.44582 652.978848zM489.44582 652.978848" p-id="2946"></path></svg>